<svg width="20" height="20" viewBox="0 0 20 20" fill="none" xmlns="http://www.w3.org/2000/svg">
<path d="M6.35763 15.313L4.04173 17.2599C3.95786 17.3304 3.85561 17.3755 3.747 17.3898C3.63838 17.4042 3.52792 17.3873 3.42861 17.341C3.32929 17.2948 3.24525 17.2211 3.18636 17.1287C3.12747 17.0363 3.09619 16.9291 3.09619 16.8195V5.39759C3.09619 5.245 3.15681 5.09867 3.2647 4.99077C3.37259 4.88288 3.51893 4.82227 3.67152 4.82227H16.3287C16.4812 4.82227 16.6276 4.88288 16.7355 4.99077C16.8434 5.09867 16.904 5.245 16.904 5.39759V14.6028C16.904 14.7554 16.8434 14.9017 16.7355 15.0096C16.6276 15.1175 16.4812 15.1781 16.3287 15.1781H6.72784C6.5924 15.1781 6.4613 15.2259 6.35763 15.313Z" stroke="#CED1D5" stroke-width="1.2427" stroke-linecap="round" stroke-linejoin="round"/>
<path d="M6.54829 10.8632C7.0249 10.8632 7.41128 10.4768 7.41128 10.0002C7.41128 9.52358 7.0249 9.13721 6.54829 9.13721C6.07168 9.13721 5.6853 9.52358 5.6853 10.0002C5.6853 10.4768 6.07168 10.8632 6.54829 10.8632Z" fill="#CED1D5"/>
<path d="M10.0002 10.8632C10.4768 10.8632 10.8632 10.4768 10.8632 10.0002C10.8632 9.52358 10.4768 9.13721 10.0002 9.13721C9.52358 9.13721 9.13721 9.52358 9.13721 10.0002C9.13721 10.4768 9.52358 10.8632 10.0002 10.8632Z" fill="#CED1D5"/>
<path d="M13.4521 10.8632C13.9287 10.8632 14.3151 10.4768 14.3151 10.0002C14.3151 9.52358 13.9287 9.13721 13.4521 9.13721C12.9755 9.13721 12.5891 9.52358 12.5891 10.0002C12.5891 10.4768 12.9755 10.8632 13.4521 10.8632Z" fill="#CED1D5"/>
</svg>
